<svg xmlns="http://www.w3.org/2000/svg" version="1.1" xmlns:xlink="http://www.w3.org/1999/xlink" width="512" height="512" x="0" y="0" viewBox="0 0 512 512" style="enable-background:new 0 0 512 512" xml:space="preserve" class=""><g><path fill="#ffcbce" d="M362.465 286.981c24.106-49.316 30.254-101.377 20.748-145.165a8.12 8.12 0 0 0-11.503-5.623c-40.391 19.398-77.696 56.229-101.802 105.545-25.908 53.004-31.072 109.179-18.354 154.845 43.847-18.016 85.002-56.599 110.911-109.602z" opacity="1" data-original="#ffcbce"></path><path fill="#ffcbce" d="M149.535 286.981c-24.106-49.316-30.254-101.377-20.748-145.165a8.12 8.12 0 0 1 11.503-5.623c40.391 19.398 77.696 56.229 101.802 105.545 25.909 53.004 31.073 109.179 18.354 154.845-43.847-18.016-85.002-56.599-110.911-109.602z" opacity="1" data-original="#ffcbce"></path><path fill="#ffb3b7" d="M201.015 250.396c0 63.621 21.6 120.491 55.549 158.711 33.948-38.22 55.549-95.09 55.549-158.711 0-59.701-19.02-113.457-49.416-151.436-3.106-3.881-9.159-3.881-12.266 0-30.395 37.979-49.416 91.735-49.416 151.436z" opacity="1" data-original="#ffb3b7"></path><path fill="#ff9a9f" d="M222.392 250.395c0-56.568 17.212-107.625 44.861-145.154-1.531-2.078-2.961-4.288-4.556-6.282-3.106-3.881-9.16-3.881-12.266 0-30.396 37.979-49.416 91.735-49.416 151.436 0 63.622 21.601 120.491 55.549 158.711 3.725-4.194 7.273-8.65 10.689-13.277-27.712-37.541-44.861-88.793-44.861-145.434z" opacity="1" data-original="#ff9a9f"></path><path fill="#ff8086" d="M395.713 405.448c46.115-17.031 82.386-46.833 103.585-80.996a8.132 8.132 0 0 0-4.472-12.108c-38.315-12.183-85.249-11.256-131.365 5.775-50.01 18.469-88.442 51.958-108.629 89.738 39.898 15.59 90.872 16.06 140.881-2.409z" opacity="1" data-original="#ff8086"></path><path fill="#ff8086" d="M116.129 405.448c-46.115-17.031-82.386-46.833-103.585-80.996a8.132 8.132 0 0 1 4.472-12.108c38.315-12.183 85.249-11.256 131.365 5.775 50.01 18.469 88.442 51.958 108.629 89.738-39.898 15.59-90.871 16.06-140.881-2.409z" opacity="1" data-original="#ff8086"></path><path fill="#ff9a9f" d="M328.947 260.825c42.215-42.215 93.676-66.777 142.024-72.139 4.941-.548 9.221 3.732 8.673 8.673-5.363 48.348-29.924 99.809-72.139 142.024C362.518 384.37 307.031 409.309 256 412.329c3.021-51.03 27.96-106.517 72.947-151.504zM183.053 260.825c-42.215-42.215-93.676-66.777-142.024-72.139-4.941-.548-9.221 3.732-8.673 8.673 5.363 48.348 29.924 99.809 72.139 142.024C149.483 384.37 204.969 409.309 256 412.329c-3.02-51.03-27.96-106.517-72.947-151.504z" opacity="1" data-original="#ff9a9f"></path><path fill="#ff8086" d="M122.532 321.346c-38.995-38.995-62.715-85.853-70.365-130.886-3.718-.632-7.45-1.366-11.137-1.775-4.942-.548-9.221 3.732-8.673 8.673 5.362 48.349 29.924 99.809 72.139 142.024 44.987 44.987 100.474 69.926 151.505 72.947-.398-6.732-1.204-13.544-2.361-20.397-45.094-7.614-92.056-31.534-131.108-70.586z" opacity="1" data-original="#ff8086"></path><path d="M510.239 312.706c-.842-1.011-1.97-1.746-3.197-2.223-9.106-3.545-18.811-6.345-28.856-8.324-4.065-.801-8.233 1.608-9.133 5.653a7.5 7.5 0 0 0 5.886 8.997 159.483 159.483 0 0 1 18.596 4.783c-20.825 33.961-56.541 62.064-99.322 77.86-30.706 11.337-62.763 15.477-92.428 12.375 39.864-11.584 78.733-34.851 111.022-67.141 44.438-44.438 71.808-101.337 75.117-156.141.096-1.584-.223-3.19-1.05-4.544a7.505 7.505 0 0 0-6.867-3.609c-28.5 1.687-57.568 9.899-85.164 23.624 1.847-25.694-.434-50.932-6.746-73.696-.352-1.269-.969-2.467-1.892-3.407a7.514 7.514 0 0 0-8.237-1.713c-24.844 10.206-48.803 26.337-69.871 46.946-9.785-32.578-25.55-61.817-46.358-85.292-.873-.985-1.953-1.79-3.194-2.228a7.513 7.513 0 0 0-8.153 2.079c-20.823 23.443-36.625 52.87-46.439 85.493-21.03-20.583-44.942-36.704-69.742-46.923-1.217-.502-2.541-.749-3.849-.597a7.513 7.513 0 0 0-6.408 5.449c-6.352 22.815-8.652 48.124-6.8 73.891-27.596-13.725-56.664-21.937-85.164-23.624-2.978-.178-5.86 1.433-7.231 4.282-.57 1.184-.768 2.515-.689 3.827 3.297 54.819 30.67 111.736 75.12 156.186 32.291 32.291 71.162 55.558 111.026 67.142-29.666 3.102-61.725-1.039-92.432-12.376-42.781-15.795-78.497-43.898-99.322-77.859a159.331 159.331 0 0 1 18.347-4.734c3.997-.785 6.867-4.568 6.222-8.591-.675-4.208-4.694-6.991-8.84-6.181-10.179 1.983-20.014 4.807-29.234 8.397-1.227.478-2.355 1.212-3.198 2.223a7.512 7.512 0 0 0-.877 8.371c21.667 40.54 62.382 74.235 111.706 92.446 25.784 9.52 52.522 14.295 78.294 14.294 17.622-.001 34.788-2.243 50.882-6.722 4.37-1.216 8.872-1.886 13.408-1.886h1.648c4.536 0 9.039.671 13.41 1.887 16.093 4.479 33.257 6.722 50.881 6.722 25.77 0 52.513-4.775 78.294-14.294 49.324-18.211 90.039-51.906 111.706-92.446a7.513 7.513 0 0 0-.872-8.376zM136.286 142.575c22.622 10.626 44.291 26.553 63.204 46.466-4.66 20.207-7.102 41.395-7.102 62.966 0 2.578.039 5.16.108 7.741a283.967 283.967 0 0 0-4.139-4.227c-16.909-16.91-35.625-31.34-55.341-42.921-2.777-24.223-1.655-48.2 3.27-70.025zm-26.488 191.504C70.216 294.496 45.017 244.661 39.76 196.09c48.571 5.256 98.407 30.456 137.989 70.038 39.582 39.583 64.781 89.418 70.038 137.989-48.57-5.256-98.406-30.456-137.989-70.038zM256 368.321c-8.886-31.55-25.105-62.527-47.345-90.174a273.25 273.25 0 0 1-1.268-26.14c0-56.6 17.627-110.248 48.615-148.715 27.349 33.902 44.272 79.276 47.889 128.825a7.5 7.5 0 0 0 14.96-1.092c-1.05-14.385-3.174-28.446-6.294-42.033 18.902-19.89 40.554-35.799 63.157-46.417 4.925 21.825 6.046 45.802 3.27 70.025-19.716 11.582-38.432 26.012-55.341 42.921-32.768 32.77-56.24 72.316-67.643 112.8zm78.25-102.193c39.583-39.582 89.418-64.782 137.989-70.038-5.256 48.571-30.456 98.407-70.038 137.989-39.583 39.582-89.418 64.782-137.989 70.038 5.257-48.57 30.456-98.406 70.038-137.989z" fill="#000000" opacity="1" data-original="#000000"></path></g></svg>